<?xml version="1.0" encoding="UTF-8"?>
<svg xmlns="http://www.w3.org/2000/svg" xmlns:xlink="http://www.w3.org/1999/xlink" width="1024px" height="px" viewBox="0 0 1024 1024" version="1.1">
<g id="surface1">
<path style=" stroke:none;fill-rule:nonzero;fill:rgb(0%,0%,0%);fill-opacity:1;" d="M 145.707031 1006.039062 L 147.199219 1006.507812 C 202.667969 1024 253.867188 1024 356.265625 1024 L 666.878906 1024 C 769.707031 1024 820.90625 1024 875.945312 1006.933594 C 936.832031 984.449219 984.019531 937.214844 1006.039062 877.824219 L 1006.507812 876.332031 C 1024 820.820312 1024 769.578125 1024 667.179688 L 1024 357.71875 C 1024 254.847656 1024 203.605469 1006.507812 148.136719 C 984.019531 87.464844 937.003906 40.449219 877.867188 18.433594 L 876.375 17.921875 C 820.480469 0 769.707031 0 666.453125 0 L 356.691406 0 C 254.292969 0 202.667969 0 147.625 17.066406 C 86.910156 39.636719 39.894531 86.828125 17.960938 146.175781 L 17.492188 147.667969 C 0 203.179688 0 254.378906 0 356.820312 L 0 667.136719 C 0 770.003906 0 820.777344 17.066406 876.289062 C 39.550781 936.960938 86.570312 984.019531 145.707031 1006.039062 Z M 279.851562 673.152344 L 322.515625 631.765625 C 326.230469 628.265625 331.265625 626.132812 336.8125 626.132812 C 342.355469 626.132812 347.390625 628.265625 351.105469 631.808594 C 389.929688 668.5 441.984375 689.023438 495.742188 688.171875 C 551.210938 688.171875 588.332031 664.703125 588.332031 627.542969 C 588.332031 590.378906 550.785156 580.609375 479.957031 554.113281 C 404.863281 527.230469 333.609375 489.214844 333.609375 400.46875 C 333.609375 297.171875 419.371094 246.828125 520.917969 242.089844 L 531.585938 189.609375 C 533.632812 180.265625 541.824219 173.398438 551.636719 173.398438 C 551.808594 173.398438 551.9375 173.398438 552.105469 173.398438 L 628.011719 173.398438 L 632.277344 173.824219 C 643.371094 176.382812 650.625 187.050781 648.0625 198.144531 L 636.542969 256.640625 C 674.945312 269.441406 711.210938 289.492188 742.355469 315.988281 L 743.210938 316.84375 C 751.316406 325.375 751.316406 338.175781 743.210938 345.855469 L 703.574219 385.535156 C 699.777344 389.078125 694.65625 391.253906 689.023438 391.253906 C 683.648438 391.253906 678.699219 389.246094 674.945312 385.960938 L 674.988281 385.960938 C 638.164062 354.730469 590.121094 335.703125 537.601562 335.617188 C 496.214844 335.617188 454.828125 349.269531 454.828125 387.285156 C 454.828125 425.683594 499.199219 438.484375 550.398438 457.726562 C 640 487.59375 714.238281 525.183594 714.238281 613.121094 C 714.238281 708.734375 640 774.484375 518.828125 781.738281 L 507.734375 832.980469 C 505.683594 842.539062 497.324219 849.621094 487.253906 849.621094 L 410.878906 849.621094 L 407.039062 849.195312 C 397.441406 846.976562 390.355469 838.484375 390.355469 828.375 C 390.355469 826.835938 390.527344 825.34375 390.828125 823.894531 L 390.785156 824.019531 L 402.730469 769.792969 C 354.773438 757.503906 313.300781 734.207031 279.679688 702.632812 L 279.851562 702.761719 L 279.851562 702.335938 C 276.136719 698.625 273.835938 693.503906 273.835938 687.828125 C 273.835938 682.15625 276.136719 676.863281 279.851562 673.152344 Z M 279.851562 673.152344 "/>
</g>
</svg>
