<?xml version="1.0" encoding="UTF-8"?>
<svg xmlns="http://www.w3.org/2000/svg" xmlns:xlink="http://www.w3.org/1999/xlink" width="1024px" height="px" viewBox="0 0 1023 793" version="1.1">
<g id="surface1">
<path style=" stroke:none;fill-rule:nonzero;fill:rgb(0%,0%,0%);fill-opacity:1;" d="M 866.011719 70.617188 C 800.808594 40.679688 730.890625 18.621094 657.785156 5.988281 C 656.453125 5.746094 655.125 6.355469 654.4375 7.574219 C 645.445312 23.578125 635.484375 44.457031 628.507812 60.867188 C 549.878906 49.089844 471.652344 49.089844 394.636719 60.867188 C 387.660156 44.09375 377.335938 23.578125 368.304688 7.574219 C 367.617188 6.394531 366.289062 5.785156 364.957031 5.988281 C 291.890625 18.582031 221.972656 40.640625 156.730469 70.617188 C 156.164062 70.859375 155.679688 71.269531 155.359375 71.796875 C 22.734375 270.066406 -13.59375 463.460938 4.226562 654.460938 C 4.308594 655.394531 4.832031 656.289062 5.558594 656.859375 C 93.058594 721.160156 177.820312 760.195312 261.003906 786.070312 C 262.335938 786.480469 263.746094 785.992188 264.59375 784.894531 C 284.273438 758.003906 301.8125 729.652344 316.851562 699.835938 C 317.738281 698.089844 316.890625 696.015625 315.078125 695.324219 C 287.253906 684.765625 260.761719 671.886719 235.277344 657.265625 C 233.261719 656.085938 233.101562 653.203125 234.957031 651.820312 C 240.320312 647.796875 245.683594 643.613281 250.804688 639.390625 C 251.730469 638.617188 253.019531 638.457031 254.109375 638.941406 C 421.53125 715.433594 602.785156 715.433594 768.226562 638.941406 C 769.316406 638.414062 770.609375 638.578125 771.574219 639.351562 C 776.699219 643.574219 782.058594 647.796875 787.464844 651.820312 C 789.316406 653.203125 789.195312 656.085938 787.179688 657.265625 C 761.695312 672.171875 735.203125 684.765625 707.339844 695.285156 C 705.527344 695.976562 704.71875 698.089844 705.609375 699.835938 C 720.96875 729.609375 738.511719 757.960938 757.824219 784.855469 C 758.632812 785.992188 760.082031 786.480469 761.414062 786.070312 C 845.003906 760.195312 929.761719 721.160156 1017.265625 656.859375 C 1018.03125 656.289062 1018.515625 655.4375 1018.59375 654.5 C 1039.925781 433.6875 982.867188 241.875 867.34375 71.835938 C 867.058594 71.269531 866.578125 70.859375 866.011719 70.617188 Z M 341.851562 538.164062 C 291.449219 538.164062 249.917969 491.855469 249.917969 434.988281 C 249.917969 378.117188 290.644531 331.808594 341.851562 331.808594 C 393.464844 331.808594 434.597656 378.523438 433.789062 434.988281 C 433.789062 491.855469 393.0625 538.164062 341.851562 538.164062 Z M 681.777344 538.164062 C 631.371094 538.164062 589.839844 491.855469 589.839844 434.988281 C 589.839844 378.117188 630.566406 331.808594 681.777344 331.808594 C 733.390625 331.808594 774.519531 378.523438 773.714844 434.988281 C 773.714844 491.855469 733.390625 538.164062 681.777344 538.164062 Z M 681.777344 538.164062 "/>
</g>
</svg>
