<?xml version="1.0" encoding="UTF-8"?>
<svg xmlns="http://www.w3.org/2000/svg" xmlns:xlink="http://www.w3.org/1999/xlink" width="1024px" height="px" viewBox="0 0 1024 1024" version="1.1">
<g id="surface1">
<path style=" stroke:none;fill-rule:nonzero;fill:rgb(0%,0%,0%);fill-opacity:1;" d="M 512 92.289062 C 648.703125 92.289062 664.917969 92.800781 718.933594 95.273438 C 857.683594 101.589844 922.496094 167.425781 928.8125 305.152344 C 931.285156 359.125 931.753906 375.339844 931.753906 512.042969 C 931.753906 648.789062 931.242188 664.960938 928.8125 718.933594 C 922.453125 856.535156 857.8125 922.496094 718.933594 928.8125 C 664.917969 931.285156 648.789062 931.796875 512 931.796875 C 375.296875 931.796875 359.082031 931.285156 305.109375 928.8125 C 166.015625 922.453125 101.546875 856.320312 95.230469 718.890625 C 92.757812 664.917969 92.246094 648.746094 92.246094 512 C 92.246094 375.296875 92.800781 359.125 95.230469 305.109375 C 101.589844 167.425781 166.230469 101.546875 305.109375 95.230469 C 359.125 92.800781 375.296875 92.289062 512 92.289062 Z M 512 0 C 372.949219 0 355.542969 0.597656 300.929688 3.070312 C 114.988281 11.605469 11.648438 114.773438 3.113281 300.886719 C 0.597656 355.542969 0 372.949219 0 512 C 0 651.050781 0.597656 668.5 3.070312 723.113281 C 11.605469 909.054688 114.773438 1012.394531 300.886719 1020.929688 C 355.542969 1023.402344 372.949219 1024 512 1024 C 651.050781 1024 668.5 1023.402344 723.113281 1020.929688 C 908.886719 1012.394531 1012.480469 909.226562 1020.886719 723.113281 C 1023.402344 668.5 1024 651.050781 1024 512 C 1024 372.949219 1023.402344 355.542969 1020.929688 300.929688 C 1012.566406 115.15625 909.269531 11.648438 723.15625 3.113281 C 668.5 0.597656 651.050781 0 512 0 Z M 512 249.089844 C 366.804688 249.089844 249.089844 366.804688 249.089844 512 C 249.089844 657.195312 366.804688 774.953125 512 774.953125 C 657.195312 774.953125 774.910156 657.238281 774.910156 512 C 774.910156 366.804688 657.195312 249.089844 512 249.089844 Z M 512 682.667969 C 417.75 682.667969 341.332031 606.292969 341.332031 512 C 341.332031 417.75 417.75 341.332031 512 341.332031 C 606.25 341.332031 682.667969 417.75 682.667969 512 C 682.667969 606.292969 606.25 682.667969 512 682.667969 Z M 785.324219 177.28125 C 751.359375 177.28125 723.839844 204.800781 723.839844 238.71875 C 723.839844 272.640625 751.359375 300.160156 785.324219 300.160156 C 819.242188 300.160156 846.71875 272.640625 846.71875 238.71875 C 846.71875 204.800781 819.242188 177.28125 785.324219 177.28125 Z M 785.324219 177.28125 "/>
</g>
</svg>
